HIERARCHY
ROOT Hips
{
	OFFSET 0.000000 0.000000 0.000000 
	CHANNELS 6 Xposition Yposition Zposition Zrotation Yrotation Xrotation
	JOINT LeftUpLeg
	{
		OFFSET 1.363060 -1.794630 0.839290 
		CHANNELS 3 Zrotation Yrotation Xrotation
		JOINT LeftLeg
		{
			OFFSET 2.448110 -6.726130 0.000000 
			CHANNELS 3 Zrotation Yrotation Xrotation
			JOINT LeftFoot
			{
				OFFSET 2.562200 -7.039590 0.000000 
				CHANNELS 3 Zrotation Yrotation Xrotation
				JOINT LeftToeBase
				{
					OFFSET 0.157640 -0.433110 2.322550 
					CHANNELS 3 Zrotation Yrotation Xrotation
					End Site
					{
						OFFSET 0.000000 0.000000 0.000000 
					}
				}
			}
		}
	}
	JOINT RightUpLeg
	{
		OFFSET -1.305520 -1.794630 0.839290 
		CHANNELS 3 Zrotation Yrotation Xrotation
		JOINT RightLeg
		{
			OFFSET -2.542530 -6.985550 0.000000 
			CHANNELS 3 Zrotation Yrotation Xrotation
			JOINT RightFoot
			{
				OFFSET -2.568260 -7.056230 0.000000 
				CHANNELS 3 Zrotation Yrotation Xrotation
				JOINT RightToeBase
				{
					OFFSET -0.164730 -0.452590 2.363150 
					CHANNELS 3 Zrotation Yrotation Xrotation
					End Site
					{
						OFFSET 0.000000 0.000000 0.000000 
					}
				}
			}
		}
	}
	JOINT Spine
	{
		OFFSET 0.028270 2.035590 -0.193380 
		CHANNELS 3 Zrotation Yrotation Xrotation
		JOINT Spine1
		{
			OFFSET 0.056720 2.048850 -0.042750 
			CHANNELS 3 Zrotation Yrotation Xrotation
			JOINT Neck1
			{
				OFFSET -0.054170 1.746240 0.172020 
				CHANNELS 3 Zrotation Yrotation Xrotation
				JOINT Head
				{
					OFFSET 0.104070 1.761360 -0.123970 
					CHANNELS 3 Zrotation Yrotation Xrotation
					End Site
					{
						OFFSET 0.000000 0.000000 0.000000 
					}
				}
			}
			JOINT LeftArm
			{
				OFFSET 3.362410 1.200890 -0.311210 
				CHANNELS 3 Zrotation Yrotation Xrotation
				JOINT LeftForeArm
				{
					OFFSET 4.983000 -0.000000 -0.000000 
					CHANNELS 3 Zrotation Yrotation Xrotation
					JOINT LeftHand
					{
						OFFSET 3.483560 -0.000000 -0.000000 
						CHANNELS 3 Zrotation Yrotation Xrotation
						JOINT LeftHandIndex1
						{
							OFFSET 0.715260 -0.000000 -0.000000 
							CHANNELS 3 Zrotation Yrotation Xrotation
							End Site
							{
								OFFSET 0.000000 0.000000 0.000000 
							}
						}
					}
				}
			}
			JOINT RightArm
			{
				OFFSET -3.136600 1.374050 -0.404650 
				CHANNELS 3 Zrotation Yrotation Xrotation
				JOINT RightForeArm
				{
					OFFSET -5.241900 -0.000000 -0.000000 
					CHANNELS 3 Zrotation Yrotation Xrotation
					JOINT RightHand
					{
						OFFSET -3.444170 -0.000000 -0.000000 
						CHANNELS 3 Zrotation Yrotation Xrotation
						JOINT RightHandIndex1
						{
							OFFSET -0.622530 -0.000000 -0.000000 
							CHANNELS 3 Zrotation Yrotation Xrotation
							End Site
							{
								OFFSET 0.000000 0.000000 0.000000 
							}
						}
					}
				}
			}
		}
	}
}
MOTION
Frames: 13
Frame Time: 0.041667
11.517208 18.680070 8.831736 0.861923 2.170978 -1.795497 -26.737382 -9.887924 -9.461166 6.835874 12.942029 41.629947 -2.838083 -29.131756 -35.226188 0.010100 -0.649500 -1.785000 41.939306 12.889748 6.257163 -7.020593 -10.735712 30.720885 -6.702501 -2.539312 -56.435621 -0.327800 -3.679600 10.176900 -4.981800 1.021049 17.333588 -2.600549 0.828036 -0.455472 15.537948 -11.539000 7.290404 3.084200 -5.577300 2.814700 -86.165827 -3.424050 26.916402 22.524909 -25.997793 -2.900823 0.381556 -0.092576 -7.226312 -7.125000 0.000000 0.000000 93.195290 -2.964255 7.731899 -20.969326 21.935937 -3.795755 1.449772 -3.216238 -8.028214 7.125000 0.000000 0.000000 
11.515937 18.673805 8.839273 1.513532 2.323324 -1.967819 -27.321058 -9.765157 -9.020205 6.785723 12.894283 41.312819 -2.829442 -29.073189 -35.121940 0.005500 -0.479700 -1.318200 41.650364 13.095435 6.641403 -7.065442 -10.794390 31.040545 -6.774884 -2.507399 -56.818757 -0.372600 -3.920400 10.852800 -6.810769 1.205583 17.035342 -1.801852 0.824060 -0.759365 14.411783 -11.629395 7.986296 2.819200 -5.584400 2.867200 -86.145150 -3.413895 26.700982 22.462695 -25.894671 -2.877144 0.408601 -0.177953 -6.822955 -7.125000 0.000000 0.000000 93.365200 -3.227275 8.101629 -21.000491 22.042421 -3.831437 1.401605 -3.240863 -6.618653 7.125000 0.000000 0.000000 
11.522112 18.669718 8.853167 1.777497 2.465511 -2.057362 -27.596769 -9.748887 -8.808789 6.769755 12.897151 41.239731 -2.746213 -28.839540 -35.207069 0.010300 -0.655100 -1.800100 41.399958 12.743552 6.929298 -7.062101 -10.760671 30.989812 -6.774305 -2.324102 -56.871692 -0.386800 -3.993700 11.058800 -7.553193 1.216233 16.622025 -1.459569 0.798331 -0.872146 13.931447 -11.552812 8.386391 2.721900 -5.527800 2.896600 -86.048883 -3.304948 26.962424 22.509218 -25.920560 -2.903076 0.457675 -0.178850 -7.274349 -7.125000 0.000000 0.000000 93.445967 -3.526549 8.282045 -21.162663 22.236623 -3.896286 1.344880 -3.263907 -4.949365 7.125000 0.000000 0.000000 
11.524473 18.667085 8.868877 1.499921 2.573277 -2.114801 -27.429091 -9.902878 -8.613562 6.783521 12.891335 41.231481 -2.821474 -28.844783 -34.986271 0.000100 -0.068100 -0.187200 41.659905 12.744348 7.046206 -7.031589 -10.761079 30.974572 -6.827393 -2.376772 -57.056071 -0.395800 -4.039400 11.187600 -7.001678 1.144849 16.784475 -1.659274 0.792988 -0.788269 14.079893 -11.479463 8.390848 2.760500 -5.488000 2.930800 -86.046400 -3.454020 27.104448 22.568364 -26.037226 -2.941138 0.498345 -0.176565 -7.447467 -7.125000 0.000000 0.000000 93.587011 -3.573061 8.169396 -21.276358 22.389778 -3.948743 1.268073 -3.292623 -2.830293 7.125000 0.000000 0.000000 
11.527923 18.662817 8.882861 1.489950 2.706586 -2.229115 -27.453376 -9.956212 -8.420484 6.795884 12.900435 41.254869 -2.869291 -28.852574 -34.807701 0.002300 0.310800 0.853900 41.700744 12.541640 7.346202 -7.006155 -10.719891 30.848846 -6.861928 -2.375346 -57.159204 -0.405800 -4.089800 11.329400 -7.198396 1.140268 16.778459 -1.588587 0.779772 -0.776425 13.896374 -11.413582 8.337911 2.724700 -5.460100 2.922600 -86.019131 -3.529727 27.202429 22.624001 -26.124154 -2.970615 0.529061 -0.182522 -7.574029 -7.125000 0.000000 0.000000 93.729628 -3.654307 8.237344 -21.278724 22.423792 -3.973326 1.211628 -3.318745 -1.088161 7.125000 0.000000 0.000000 
11.531374 18.658458 8.897300 1.361174 2.820012 -2.364233 -27.359097 -9.992413 -8.252904 6.818644 12.917286 41.335160 -2.932972 -28.895540 -34.612254 0.011800 0.700600 1.925300 41.827734 12.295273 7.659153 -6.967337 -10.664244 30.653398 -6.891587 -2.397781 -57.210111 -0.410400 -4.112200 11.392500 -7.185059 1.119135 16.859980 -1.629727 0.765881 -0.727455 13.809364 -11.321637 8.073463 2.711100 -5.430900 2.884700 -85.993093 -3.628565 27.302745 22.684654 -26.223037 -3.002575 0.558170 -0.182507 -7.710017 -7.125000 0.000000 0.000000 93.875847 -3.683417 8.357357 -21.238701 22.407681 -3.986252 1.156877 -3.344975 0.637966 7.125000 0.000000 0.000000 
11.534007 18.653554 8.911102 1.110947 2.895622 -2.525493 -27.138081 -9.980784 -8.084228 6.844828 12.933222 41.434766 -3.005163 -28.960590 -34.423989 0.026500 1.051000 2.889000 42.067184 12.082028 7.958843 -6.918865 -10.612875 30.455812 -6.919981 -2.440023 -57.236976 -0.413800 -4.129300 11.440900 -6.990333 1.086630 17.005496 -1.761414 0.753506 -0.674086 13.723886 -11.213666 7.671325 2.698900 -5.402000 2.822500 -85.966401 -3.745226 27.388463 22.730255 -26.304373 -3.029848 0.587663 -0.184114 -7.827732 -7.125000 0.000000 0.000000 94.023152 -3.681827 8.557652 -21.192779 22.384449 -3.997654 1.103821 -3.370173 2.326375 7.125000 0.000000 0.000000 
11.535914 18.648469 8.923634 0.767231 2.925695 -2.704460 -26.811523 -9.925268 -7.931418 6.874177 12.952903 41.567637 -3.070800 -29.030424 -34.278359 0.041700 1.318400 3.625300 42.391037 11.881267 8.255069 -6.860859 -10.556056 30.225422 -6.942087 -2.493197 -57.221209 -0.417300 -4.146300 11.488700 -6.658207 1.049169 17.165515 -1.955062 0.744986 -0.628662 13.623872 -11.103428 7.195857 2.684800 -5.376800 2.743500 -85.940283 -3.872113 27.469776 22.751611 -26.353916 -3.049805 0.619900 -0.188411 -7.944543 -7.125000 0.000000 0.000000 94.165018 -3.676871 8.806272 -21.194565 22.414352 -4.021460 1.051437 -3.392412 3.968084 7.125000 0.000000 0.000000 
11.537912 18.643565 8.934894 0.391554 2.912459 -2.888792 -26.444791 -9.834812 -7.794730 6.902469 12.974639 41.713547 -3.113605 -29.068792 -34.198223 0.051800 1.468700 4.039400 42.712830 11.645297 8.523845 -6.800049 -10.497529 29.985277 -6.944976 -2.508385 -57.134221 -0.418500 -4.152400 11.505900 -6.248767 1.012959 17.302706 -2.179071 0.742990 -0.592599 13.597876 -11.005864 6.751520 2.686800 -5.356000 2.667900 -85.925667 -4.000514 27.548923 22.758945 -26.386940 -3.065253 0.650246 -0.189625 -8.091624 -7.125000 0.000000 0.000000 94.309359 -3.742536 9.216252 -21.308124 22.581691 -4.101225 0.938995 -3.436379 7.347386 7.125000 0.000000 0.000000 
11.540455 18.639297 8.944611 0.036681 2.859085 -3.065380 -26.094313 -9.725789 -7.664549 6.926004 12.995647 41.848477 -3.132417 -29.066335 -34.173350 0.056400 1.532900 4.216400 42.982207 11.381703 8.745743 -6.743196 -10.444426 29.770832 -6.924749 -2.453363 -56.981577 -0.420300 -4.161300 11.530900 -5.842102 0.988877 17.406850 -2.397187 0.747838 -0.579237 13.629145 -10.937960 6.420470 2.699300 -5.343000 2.611100 -85.931447 -4.119311 27.620226 22.768844 -26.425954 -3.080511 0.673358 -0.183452 -8.255483 -7.125000 0.000000 0.000000 94.398055 -3.675519 8.957304 -21.499919 22.873473 -4.231256 1.075100 -3.469612 6.439783 7.125000 0.000000 0.000000 
11.543633 18.636210 8.952602 -0.205369 2.788358 -3.206741 -25.851271 -9.625230 -7.547930 6.943060 13.013634 41.947731 -3.136637 -29.026649 -34.159470 0.059900 1.579000 4.343500 43.122501 11.101508 8.899449 -6.700378 -10.403559 29.617875 -6.879763 -2.303582 -56.780551 -0.425000 -4.183800 11.594400 -5.607102 1.002074 17.450504 -2.549321 0.765376 -0.582869 13.740771 -10.917522 6.249517 2.721500 -5.342900 2.583400 -85.956912 -4.217504 27.674868 22.799722 -26.495193 -3.100729 0.686162 -0.168126 -8.407966 -7.125000 0.000000 0.000000 94.526716 -3.694406 8.896842 -21.554699 22.952649 -4.254928 1.059392 -3.473147 6.382148 7.125000 0.000000 0.000000 
11.547629 18.634757 8.958958 -0.236910 2.724838 -3.291607 -25.813826 -9.557024 -7.452231 6.951879 13.027864 41.990851 -3.126294 -28.940421 -34.134064 0.063800 1.630000 4.484000 43.048339 10.799057 8.977556 -6.681135 -10.378120 29.549524 -6.808634 -2.043170 -56.544217 -0.432500 -4.220300 11.697300 -5.721870 1.060852 17.415766 -2.549859 0.789714 -0.587623 13.944851 -10.934424 6.226934 2.755700 -5.351100 2.583800 -86.004412 -4.275239 27.709890 22.872851 -26.616327 -3.131763 0.686705 -0.141543 -8.559617 -7.125000 0.000000 0.000000 94.652087 -3.703848 8.626144 -21.638153 23.066288 -4.273478 1.035055 -3.465946 6.471460 7.125000 0.000000 0.000000 
11.551715 18.634757 8.964134 -0.057955 2.664151 -3.315941 -25.985994 -9.532035 -7.372182 6.950999 13.037446 41.974019 -3.095720 -28.802323 -34.113568 0.068100 1.683400 4.631400 42.786625 10.533544 8.986826 -6.687025 -10.370400 29.573801 -6.721094 -1.705920 -56.306486 -0.444700 -4.278500 11.861700 -6.180469 1.158552 17.310839 -2.377629 0.818320 -0.584677 14.149307 -10.958637 6.289365 2.786300 -5.356900 2.599300 -86.073644 -4.288006 27.724444 22.981644 -26.776240 -3.172565 0.681324 -0.109662 -8.704910 -7.125000 0.000000 0.000000 94.759013 -3.700342 8.406726 -21.708153 23.179424 -4.303503 1.042077 -3.465771 6.342975 7.125000 0.000000 0.000000 
